<svg width="50" height="50" viewBox="0 0 50 50" fill="none" xmlns="http://www.w3.org/2000/svg">
<path d="M20.3125 17.1875C21.25 17.1875 21.875 16.5625 21.875 15.625C21.875 14.6875 21.25 14.0625 20.3125 14.0625C12.5 14.0625 6.25 20.3125 6.25 28.125C6.25 32.5 9.6875 35.9375 14.0625 35.9375C18.4375 35.9375 21.875 32.5 21.875 28.125C21.875 23.75 18.4375 20.3125 14.0625 20.3125C13.5938 20.3125 12.9688 20.3125 12.5 20.4688C14.5312 18.4375 17.1875 17.1875 20.3125 17.1875Z" fill="#00BFAE" fill-opacity="0.8"/>
<path d="M35.9375 20.3125C35.4688 20.3125 34.8438 20.3125 34.375 20.4688C36.4062 18.4375 39.0625 17.1875 42.1875 17.1875C43.125 17.1875 43.75 16.5625 43.75 15.625C43.75 14.6875 43.125 14.0625 42.1875 14.0625C34.375 14.0625 28.125 20.3125 28.125 28.125C28.125 32.5 31.5625 35.9375 35.9375 35.9375C40.3125 35.9375 43.75 32.5 43.75 28.125C43.75 23.75 40.3125 20.3125 35.9375 20.3125Z" fill="#00BFAE" fill-opacity="0.8"/>
</svg>
