<svg width="25" height="25" viewBox="0 0 25 25" fill="none" xmlns="http://www.w3.org/2000/svg">
<path d="M8.25807 8.32229L8.78448 8.24211L9.01179 7.76058L12.063 1.29691C12.0631 1.29681 12.0631 1.29671 12.0632 1.29661C12.0632 1.29658 12.0632 1.29656 12.0632 1.29654C12.2484 0.905163 12.7466 0.896776 12.9374 1.29768C12.9375 1.2979 12.9376 1.29812 12.9377 1.29835L15.9882 7.76058L16.2155 8.24211L16.7419 8.32229L23.569 9.36221L23.5698 9.36232C23.7517 9.38989 23.9029 9.51707 23.9702 9.73394C24.038 9.95202 23.9916 10.1775 23.8336 10.3383L23.8333 10.3386L18.894 15.3672L18.5383 15.7294L18.6207 16.2302L19.7888 23.3332C19.7888 23.3332 19.7889 23.3333 19.7889 23.3334C19.8306 23.5887 19.7275 23.7859 19.5762 23.8997C19.4255 24.0129 19.2526 24.0304 19.089 23.9405L19.0888 23.9404L12.9814 20.5863L12.5 20.3219L12.0186 20.5863L5.91117 23.9404L5.90798 23.9421C5.74564 24.032 5.57474 24.0152 5.42452 23.9021C5.27292 23.7879 5.16945 23.5894 5.21106 23.3339C5.21107 23.3338 5.21107 23.3338 5.21108 23.3338C5.21111 23.3336 5.21114 23.3334 5.21117 23.3332L6.37928 16.2302L6.46165 15.7294L6.10596 15.3672L1.16671 10.3386L1.16644 10.3383C1.00841 10.1775 0.96205 9.95201 1.02978 9.73394C1.09714 9.51707 1.2483 9.38989 1.43022 9.36232L1.43098 9.3622L8.25807 8.32229Z" fill="#FFD447" stroke="#121416" stroke-width="2"/>
</svg>
